<?xml version="1.0" encoding="utf-8"?>
<!-- Generator: Adobe Illustrator 28.0.0, SVG Export Plug-In . SVG Version: 6.00 Build 0)  -->
<svg version="1.1" id="Capa_1" xmlns="http://www.w3.org/2000/svg" xmlns:xlink="http://www.w3.org/1999/xlink" x="0px" y="0px"
	 viewBox="0 0 1080 1080" style="enable-background:new 0 0 1080 1080;" xml:space="preserve">
<style type="text/css">
	.st0{fill:#EEAE33;}
</style>
<g>
	<path class="st0" d="M156.1,702.1c0,0.1-0.1,0.1-0.1,0.2c4.2-4.2,8.6-8.3,12.9-12.4c-0.4,0.3-0.7,0.6-1,0.9
		c7.5-7.1,15.2-14,23.2-20.7c35.6-37.1,74.9-70,115.4-101.5c51.4-35.4,105.6-65.8,163.6-89l0,0c8.2-2.8,16.4-5.6,24.6-8.5
		c38.5-13.4,39.4-12.6,43.7,27.7c4.8,44.9,9.2,89.8,15.4,134.5c5.9,42.3,6.8,42.2,42.9,20.5l0,0C650,626.6,699,593,744.9,555
		c42.3-31.4,79.8-67.7,111.5-110c24.6-32.8,34-69.8,23.3-108.8c-13.7-49.9-48.3-86-87.7-117.6c0,0,0,0,0,0c-0.7-0.6-1.4-1.3-2-1.9
		c0,0,0,0,0,0c0,0,0,0,0,0c-50-47.2-109.6-76-176.5-90.7c-68.4-21.4-137.2-19.1-206.3-3.7c-72.8,17.5-137,50.8-190.4,103.8
		C92.8,337,57.6,547.7,94.9,622c47.8-53.2,95.1-105.8,142.4-158.4c9.6-8.6,12.5-18.7,13.3-32c2.3-38.3,16.9-71.6,44-100
		c50.5-53,123.9-81.6,194.9-93.5c94.3-15.7,197.9,18.3,262.6,89.2c0,0,0,0,0,0c0,0,0,0,0,0c4.5,6.7,9.1,13.5,13.6,20.2
		c-6.4,18.6-22.1,30.6-32.6,46.3l0,0c0,0,0,0,0,0c-15.9,13.6-31.8,27.2-47.9,40.7c-13.5,11.4-22.4,11.6-25.6-9.1
		c-6.2-39.7-14.5-79.1-20.1-118.8c-3.4-24.3-13.8-32.6-38.3-26.9c-77.4,18-149.2,48.6-215.9,91.5c0,0,0,0,0,0
		c-45.7,27.6-91.4,55-126.4,96.5l0,0c-58.7,57-110,119.9-153,189.5C62.5,713.2,28.2,774,9.5,843.9c37.6-35.3,75.3-70.5,112.9-105.8
		C133.3,725.7,144.5,713.7,156.1,702.1z"/>
	<path class="st0" d="M876.9,598c92.3-83.6,161.2-182.1,193.6-303.8c-13.6,15.8-25.1,32.9-37,49.8C984,415,919.8,472.3,857.9,531.6
		c0,0,0,0,0,0c-55.2,45.9-111.4,90.6-171.5,129.9c-13.7,9-10.2,15.3,1,22.2c17.9,11,35.5,22.6,53.7,32.9
		c12.5,7.1,14.3,13.7,2.9,23.2c-14.1,11.7-27.9,23.8-41.8,35.7l0,0v0c-46.9,29.3-97.8,46-153.3,48c0,0,0,0,0,0c0,0,0,0,0,0
		c-65.9,0.3-127.6-14.3-183.2-50.9c0,0,0,0,0,0c-45.2-33.6-81.8-74.2-100.2-128.5c-5.2-15.4-11.6-10.9-20.6-4.3L131.5,743.3
		c47.7,92.6,120,157.7,217.7,194.4c48.9,20.4,100.2,29.8,152.9,32c72.4,1.8,141.7-10,205.7-45.8c3.7-2.1,7.4-4.1,11.1-6.2
		c79.5-44.1,139.7-106.5,179.5-188.5c7.8-16.1,8.2-26.2-9.8-35.3c-15.5-7.8-28.7-19.9-43.4-29.2c-11.4-7.2-13.6-14.1-3.8-24.7
		C853.8,626.4,865.1,612,876.9,598z"/>
</g>
</svg>
